<?xml version="1.0" encoding="UTF-8"?>
<svg xmlns="http://www.w3.org/2000/svg" xmlns:xlink="http://www.w3.org/1999/xlink" width="24pt" height="24pt" viewBox="0 0 24 24" version="1.1">
<g id="surface1">
<path style=" stroke:none;fill-rule:nonzero;fill:#FFFFFF;fill-opacity:1;" d="M 19 10 L 19 8 L 16 8 L 16 5 L 14 5 L 14 8 L 10 8 L 10 5 L 8 5 L 8 8 L 5 8 L 5 10 L 8 10 L 8 14 L 5 14 L 5 16 L 8 16 L 8 19 L 10 19 L 10 16 L 14 16 L 14 19 L 16 19 L 16 16 L 19 16 L 19 14 L 16 14 L 16 10 Z M 10 14 L 10 10 L 14 10 L 14 14 Z "/>
</g>
</svg>
