<?xml version="1.0" encoding="UTF-8"?>
<svg xmlns="http://www.w3.org/2000/svg" xmlns:xlink="http://www.w3.org/1999/xlink" width="24pt" height="24pt" viewBox="0 0 24 24" version="1.1">
<g id="surface1">
<path style=" stroke:none;fill-rule:nonzero;fill:#FFFFFF;fill-opacity:1;" d="M 4 2 L 4 5 L 6 5 L 6 7 C 6 9.085938 7.070313 10.925781 8.6875 12 C 7.070313 13.074219 6 14.914063 6 17 L 6 19 L 4 19 L 4 22 L 20 22 L 20 19 L 18 19 L 18 17 C 18 14.914063 16.929688 13.074219 15.3125 12 C 16.929688 10.925781 18 9.085938 18 7 L 18 5 L 20 5 L 20 2 Z M 8 5 L 16 5 L 16 7 C 16 8.859375 14.71875 10.554688 13 11 L 13 13 C 14.71875 13.445313 16 15.140625 16 17 L 16 19 L 8 19 L 8 17 C 8 15.140625 9.28125 13.445313 11 13 L 11 11 C 9.28125 10.554688 8 8.859375 8 7 Z M 9 7 C 9 8.65625 10.34375 10 12 10 C 13.65625 10 15 8.65625 15 7 Z "/>
</g>
</svg>
