<?xml version="1.0" encoding="UTF-8"?>
<svg xmlns="http://www.w3.org/2000/svg" xmlns:xlink="http://www.w3.org/1999/xlink" width="24pt" height="24pt" viewBox="0 0 24 24" version="1.1">
<g id="surface1">
<path style=" stroke:none;fill-rule:nonzero;fill:#DC1A45;fill-opacity:1;" d="M 4 2 C 2.898438 2 2 2.898438 2 4 L 2 8 C 2 9.101563 2.898438 10 4 10 L 20 10 C 21.101563 10 22 9.101563 22 8 L 22 4 C 22 2.898438 21.101563 2 20 2 Z M 6 4.6875 C 6.699219 4.6875 7.3125 5.300781 7.3125 6 C 7.3125 6.699219 6.699219 7.3125 6 7.3125 C 5.300781 7.3125 4.6875 6.699219 4.6875 6 C 4.6875 5.300781 5.300781 4.6875 6 4.6875 Z M 10 4.6875 C 10.699219 4.6875 11.3125 5.300781 11.3125 6 C 11.3125 6.699219 10.699219 7.3125 10 7.3125 C 9.300781 7.3125 8.6875 6.699219 8.6875 6 C 8.6875 5.300781 9.300781 4.6875 10 4.6875 Z M 14 4.6875 C 14.699219 4.6875 15.3125 5.300781 15.3125 6 C 15.3125 6.699219 14.699219 7.3125 14 7.3125 C 13.300781 7.3125 12.6875 6.699219 12.6875 6 C 12.6875 5.300781 13.300781 4.6875 14 4.6875 Z M 18 4.6875 C 18.699219 4.6875 19.3125 5.300781 19.3125 6 C 19.3125 6.699219 18.699219 7.3125 18 7.3125 C 17.300781 7.3125 16.6875 6.699219 16.6875 6 C 16.6875 5.300781 17.300781 4.6875 18 4.6875 Z M 12 13 C 9.789063 13 8 14.789063 8 17 C 8 19.210938 9.789063 21 12 21 C 13.050781 21 14.144531 20.628906 14.875 19.75 L 13.34375 18.46875 C 13.074219 18.792969 12.550781 19 12 19 C 10.808594 19 10 18.191406 10 17 C 10 15.808594 10.808594 15 12 15 C 12.539063 15 13.03125 15.234375 13.40625 15.59375 L 12 17 L 16 17 L 16 13 L 14.84375 14.15625 C 14.089844 13.425781 13.082031 13 12 13 Z "/>
</g>
</svg>
